<svg width="26" height="278" viewBox="0 0 26 278" fill="none" xmlns="http://www.w3.org/2000/svg">
    <rect y="277.403" width="7.02904" height="5.02253" rx="1.34409" transform="rotate(-90 0 277.403)" fill="#00F0FF"/>
    <rect y="247.374" width="7.02904" height="5.02253" rx="1.34409" transform="rotate(-90 0 247.374)" fill="#00F0FF"/>
    <rect y="217.345" width="7.02904" height="5.02253" rx="1.34409" transform="rotate(-90 0 217.345)" fill="#00F0FF"/>
    <rect y="187.316" width="7.02904" height="5.02253" rx="1.34409" transform="rotate(-90 0 187.316)" fill="#00F0FF"/>
    <rect y="157.287" width="7.02904" height="5.02253" rx="1.34409" transform="rotate(-90 0 157.287)" fill="#00F0FF"/>
    <rect y="127.258" width="7.02904" height="5.02253" rx="1.34409" transform="rotate(-90 0 127.258)" fill="#00F0FF"/>
    <rect y="97.2285" width="7.02904" height="5.02253" rx="1.34409" transform="rotate(-90 0 97.2285)" fill="#00F0FF"/>
    <rect y="67.1995" width="7.02904" height="5.02253" rx="1.34409" transform="rotate(-90 0 67.1995)" fill="#00F0FF"/>
    <rect y="37.1704" width="7.02904" height="5.02253" rx="1.34409" transform="rotate(-90 0 37.1704)" fill="#00F0FF"/>
    <rect y="7.14136" width="7.02904" height="5.02253" rx="1.34409" transform="rotate(-90 0 7.14136)" fill="#00F0FF"/>
    <rect x="20.0225" y="277.403" width="7.02904" height="5.02253" rx="1.34409" transform="rotate(-90 20.0225 277.403)" fill="#00F0FF"/>
    <rect x="20.0225" y="247.374" width="7.02904" height="5.02253" rx="1.34409" transform="rotate(-90 20.0225 247.374)" fill="#00F0FF"/>
    <rect x="20.0225" y="217.345" width="7.02904" height="5.02253" rx="1.34409" transform="rotate(-90 20.0225 217.345)" fill="#00F0FF"/>
    <rect x="20.0225" y="187.316" width="7.02904" height="5.02253" rx="1.34409" transform="rotate(-90 20.0225 187.316)" fill="#00F0FF"/>
    <rect x="20.0225" y="157.287" width="7.02904" height="5.02253" rx="1.34409" transform="rotate(-90 20.0225 157.287)" fill="#00F0FF"/>
    <rect x="20.0225" y="127.258" width="7.02904" height="5.02253" rx="1.34409" transform="rotate(-90 20.0225 127.258)" fill="#00F0FF"/>
    <rect x="20.0225" y="97.2285" width="7.02904" height="5.02253" rx="1.34409" transform="rotate(-90 20.0225 97.2285)" fill="#00F0FF"/>
    <rect x="20.0225" y="67.1995" width="7.02904" height="5.02253" rx="1.34409" transform="rotate(-90 20.0225 67.1995)" fill="#00F0FF"/>
    <rect x="20.0225" y="37.1704" width="7.02904" height="5.02253" rx="1.34409" transform="rotate(-90 20.0225 37.1704)" fill="#00F0FF"/>
    <rect x="20.0225" y="7.14136" width="7.02904" height="5.02253" rx="1.34409" transform="rotate(-90 20.0225 7.14136)" fill="#00F0FF"/>
    </svg>
    