<svg width="253" height="212" viewBox="0 0 253 212" fill="none" xmlns="http://www.w3.org/2000/svg">
    <rect y="0.199707" width="6.0154" height="6.11166" rx="3.0077" fill="#00F0FF"/>
    <rect x="46.6191" y="0.199707" width="6.0154" height="6.11166" rx="3.0077" fill="#00F0FF"/>
    <rect x="93.2393" y="0.199707" width="6.0154" height="6.11166" rx="3.0077" fill="#00F0FF"/>
    <rect x="139.858" y="0.199707" width="6.0154" height="6.11166" rx="3.0077" fill="#00F0FF"/>
    <rect x="186.478" y="0.199707" width="6.0154" height="6.11166" rx="3.0077" fill="#00F0FF"/>
    <rect x="233.097" y="0.199707" width="6.0154" height="6.11166" rx="3.0077" fill="#00F0FF"/>
    <rect y="22.9646" width="6.0154" height="6.11166" rx="3.0077" fill="#00F0FF"/>
    <rect x="46.6191" y="22.9646" width="6.0154" height="6.11166" rx="3.0077" fill="#00F0FF"/>
    <rect x="93.2393" y="22.9646" width="6.0154" height="6.11166" rx="3.0077" fill="#00F0FF"/>
    <rect x="139.858" y="22.9646" width="6.0154" height="6.11166" rx="3.0077" fill="#00F0FF"/>
    <rect x="186.478" y="22.9646" width="6.0154" height="6.11166" rx="3.0077" fill="#00F0FF"/>
    <rect x="233.097" y="22.9646" width="6.0154" height="6.11166" rx="3.0077" fill="#00F0FF"/>
    <rect y="45.7297" width="6.0154" height="6.11166" rx="3.0077" fill="#00F0FF"/>
    <rect x="46.6191" y="45.7297" width="6.0154" height="6.11166" rx="3.0077" fill="#00F0FF"/>
    <rect x="93.2393" y="45.7297" width="6.0154" height="6.11166" rx="3.0077" fill="#00F0FF"/>
    <rect x="139.858" y="45.7297" width="6.0154" height="6.11166" rx="3.0077" fill="#00F0FF"/>
    <rect x="186.478" y="45.7297" width="6.0154" height="6.11166" rx="3.0077" fill="#00F0FF"/>
    <rect x="233.097" y="45.7297" width="6.0154" height="6.11166" rx="3.0077" fill="#00F0FF"/>
    <rect y="68.4946" width="6.0154" height="6.11166" rx="3.0077" fill="#00F0FF"/>
    <rect x="46.6191" y="68.4946" width="6.0154" height="6.11166" rx="3.0077" fill="#00F0FF"/>
    <rect x="93.2393" y="68.4946" width="6.0154" height="6.11166" rx="3.0077" fill="#00F0FF"/>
    <rect x="139.858" y="68.4946" width="6.0154" height="6.11166" rx="3.0077" fill="#00F0FF"/>
    <rect x="186.478" y="68.4946" width="6.0154" height="6.11166" rx="3.0077" fill="#00F0FF"/>
    <rect x="233.097" y="68.4946" width="6.0154" height="6.11166" rx="3.0077" fill="#00F0FF"/>
    <rect y="91.2598" width="6.0154" height="6.11166" rx="3.0077" fill="#00F0FF"/>
    <rect x="46.6191" y="91.2598" width="6.0154" height="6.11166" rx="3.0077" fill="#00F0FF"/>
    <rect x="93.2393" y="91.2598" width="6.0154" height="6.11166" rx="3.0077" fill="#00F0FF"/>
    <rect x="139.858" y="91.2598" width="6.0154" height="6.11166" rx="3.0077" fill="#00F0FF"/>
    <rect x="186.478" y="91.2598" width="6.0154" height="6.11166" rx="3.0077" fill="#00F0FF"/>
    <rect x="233.097" y="91.2598" width="6.0154" height="6.11166" rx="3.0077" fill="#00F0FF"/>
    <rect y="114.025" width="6.0154" height="6.11166" rx="3.0077" fill="#00F0FF"/>
    <rect x="46.6191" y="114.025" width="6.0154" height="6.11166" rx="3.0077" fill="#00F0FF"/>
    <rect x="93.2393" y="114.025" width="6.0154" height="6.11166" rx="3.0077" fill="#00F0FF"/>
    <rect x="139.858" y="114.025" width="6.0154" height="6.11166" rx="3.0077" fill="#00F0FF"/>
    <rect x="186.478" y="114.025" width="6.0154" height="6.11166" rx="3.0077" fill="#00F0FF"/>
    <rect x="233.097" y="114.025" width="6.0154" height="6.11166" rx="3.0077" fill="#00F0FF"/>
    <rect y="136.79" width="6.0154" height="6.11166" rx="3.0077" fill="#00F0FF"/>
    <rect y="159.555" width="6.0154" height="6.11166" rx="3.0077" fill="#00F0FF"/>
    <rect y="182.32" width="6.0154" height="6.11166" rx="3.0077" fill="#00F0FF"/>
    <rect y="205.085" width="6.0154" height="6.11166" rx="3.0077" fill="#00F0FF"/>
    <rect x="46.6191" y="136.79" width="6.0154" height="6.11166" rx="3.0077" fill="#00F0FF"/>
    <rect x="46.6191" y="159.555" width="6.0154" height="6.11166" rx="3.0077" fill="#00F0FF"/>
    <rect x="46.6191" y="182.32" width="6.0154" height="6.11166" rx="3.0077" fill="#00F0FF"/>
    <rect x="46.6191" y="205.085" width="6.0154" height="6.11166" rx="3.0077" fill="#00F0FF"/>
    <rect x="93.2393" y="136.79" width="6.0154" height="6.11166" rx="3.0077" fill="#00F0FF"/>
    <rect x="93.2393" y="159.555" width="6.0154" height="6.11166" rx="3.0077" fill="#00F0FF"/>
    <rect x="93.2393" y="182.32" width="6.0154" height="6.11166" rx="3.0077" fill="#00F0FF"/>
    <rect x="93.2393" y="205.085" width="6.0154" height="6.11166" rx="3.0077" fill="#00F0FF"/>
    <rect x="139.858" y="136.79" width="6.0154" height="6.11166" rx="3.0077" fill="#00F0FF"/>
    <rect x="139.858" y="159.555" width="6.0154" height="6.11166" rx="3.0077" fill="#00F0FF"/>
    <rect x="139.858" y="182.32" width="6.0154" height="6.11166" rx="3.0077" fill="#00F0FF"/>
    <rect x="139.858" y="205.085" width="6.0154" height="6.11166" rx="3.0077" fill="#00F0FF"/>
    <rect x="186.478" y="136.79" width="6.0154" height="6.11166" rx="3.0077" fill="#00F0FF"/>
    <rect x="186.478" y="159.555" width="6.0154" height="6.11166" rx="3.0077" fill="#00F0FF"/>
    <rect x="186.478" y="182.32" width="6.0154" height="6.11166" rx="3.0077" fill="#00F0FF"/>
    <rect x="186.478" y="205.085" width="6.0154" height="6.11166" rx="3.0077" fill="#00F0FF"/>
    <rect x="233.097" y="136.79" width="6.0154" height="6.11166" rx="3.0077" fill="#00F0FF"/>
    <rect x="233.097" y="159.555" width="6.0154" height="6.11166" rx="3.0077" fill="#00F0FF"/>
    <rect x="233.097" y="182.32" width="6.0154" height="6.11166" rx="3.0077" fill="#00F0FF"/>
    <rect x="233.097" y="205.085" width="6.0154" height="6.11166" rx="3.0077" fill="#00F0FF"/>
    </svg>
    