<svg width="282" height="185" viewBox="0 0 282 185" fill="none" xmlns="http://www.w3.org/2000/svg">
    <rect x="0.455078" y="0.970703" width="7.02904" height="5.02253" rx="1.34409" fill="#00F0FF"/>
    <rect x="30.9521" y="0.970703" width="7.02904" height="5.02253" rx="1.34409" fill="#00F0FF"/>
    <rect x="61.4492" y="0.970703" width="7.02904" height="5.02253" rx="1.34409" fill="#00F0FF"/>
    <rect x="91.9463" y="0.970703" width="7.02904" height="5.02253" rx="1.34409" fill="#00F0FF"/>
    <rect x="122.443" y="0.970703" width="7.02904" height="5.02253" rx="1.34409" fill="#00F0FF"/>
    <rect x="152.939" y="0.970703" width="7.02904" height="5.02253" rx="1.34409" fill="#00F0FF"/>
    <rect x="183.438" y="0.970703" width="7.02904" height="5.02253" rx="1.34409" fill="#00F0FF"/>
    <rect x="213.935" y="0.970703" width="7.02904" height="5.02253" rx="1.34409" fill="#00F0FF"/>
    <rect x="244.432" y="0.970703" width="7.02904" height="5.02253" rx="1.34409" fill="#00F0FF"/>
    <rect x="274.929" y="0.970703" width="7.02904" height="5.02253" rx="1.34409" fill="#00F0FF"/>
    <rect x="0.455078" y="21.061" width="7.02904" height="5.02253" rx="1.34409" fill="#00F0FF"/>
    <rect x="30.9521" y="21.061" width="7.02904" height="5.02253" rx="1.34409" fill="#00F0FF"/>
    <rect x="61.4492" y="21.0605" width="7.02904" height="5.02253" rx="1.34409" fill="#00F0FF"/>
    <rect x="91.9463" y="21.0605" width="7.02904" height="5.02253" rx="1.34409" fill="#00F0FF"/>
    <rect x="122.443" y="21.0605" width="7.02904" height="5.02253" rx="1.34409" fill="#00F0FF"/>
    <rect x="152.939" y="21.0605" width="7.02904" height="5.02253" rx="1.34409" fill="#00F0FF"/>
    <rect x="183.438" y="21.0605" width="7.02904" height="5.02253" rx="1.34409" fill="#00F0FF"/>
    <rect x="213.935" y="21.0605" width="7.02904" height="5.02253" rx="1.34409" fill="#00F0FF"/>
    <rect x="244.432" y="21.061" width="7.02904" height="5.02253" rx="1.34409" fill="#00F0FF"/>
    <rect x="274.929" y="21.061" width="7.02904" height="5.02253" rx="1.34409" fill="#00F0FF"/>
    <rect x="0.455078" y="41.1509" width="7.02904" height="5.02253" rx="1.34409" fill="#00F0FF"/>
    <rect x="30.9521" y="41.1509" width="7.02904" height="5.02253" rx="1.34409" fill="#00F0FF"/>
    <rect x="61.4492" y="41.1509" width="7.02904" height="5.02253" rx="1.34409" fill="#00F0FF"/>
    <rect x="91.9463" y="41.1509" width="7.02904" height="5.02253" rx="1.34409" fill="#00F0FF"/>
    <rect x="122.443" y="41.1509" width="7.02904" height="5.02253" rx="1.34409" fill="#00F0FF"/>
    <rect x="152.939" y="41.1509" width="7.02904" height="5.02253" rx="1.34409" fill="#00F0FF"/>
    <rect x="183.438" y="41.1509" width="7.02904" height="5.02253" rx="1.34409" fill="#00F0FF"/>
    <rect x="213.935" y="41.1509" width="7.02904" height="5.02253" rx="1.34409" fill="#00F0FF"/>
    <rect x="244.432" y="41.1509" width="7.02904" height="5.02253" rx="1.34409" fill="#00F0FF"/>
    <rect x="274.929" y="41.1509" width="7.02904" height="5.02253" rx="1.34409" fill="#00F0FF"/>
    <rect x="0.455078" y="61.2407" width="7.02904" height="5.02253" rx="1.34409" fill="#00F0FF"/>
    <rect x="30.9521" y="61.2407" width="7.02904" height="5.02253" rx="1.34409" fill="#00F0FF"/>
    <rect x="61.4492" y="61.2407" width="7.02904" height="5.02253" rx="1.34409" fill="#00F0FF"/>
    <rect x="91.9463" y="61.2407" width="7.02904" height="5.02253" rx="1.34409" fill="#00F0FF"/>
    <rect x="122.443" y="61.2407" width="7.02904" height="5.02253" rx="1.34409" fill="#00F0FF"/>
    <rect x="152.939" y="61.2407" width="7.02904" height="5.02253" rx="1.34409" fill="#00F0FF"/>
    <rect x="183.438" y="61.2407" width="7.02904" height="5.02253" rx="1.34409" fill="#00F0FF"/>
    <rect x="213.935" y="61.2407" width="7.02904" height="5.02253" rx="1.34409" fill="#00F0FF"/>
    <rect x="244.432" y="61.2407" width="7.02904" height="5.02253" rx="1.34409" fill="#00F0FF"/>
    <rect x="274.929" y="61.2407" width="7.02904" height="5.02253" rx="1.34409" fill="#00F0FF"/>
    <rect x="0.455078" y="81.3315" width="7.02904" height="5.02253" rx="1.34409" fill="#00F0FF"/>
    <rect x="30.9521" y="81.3315" width="7.02904" height="5.02253" rx="1.34409" fill="#00F0FF"/>
    <rect x="61.4492" y="81.3315" width="7.02904" height="5.02253" rx="1.34409" fill="#00F0FF"/>
    <rect x="91.9463" y="81.3315" width="7.02904" height="5.02253" rx="1.34409" fill="#00F0FF"/>
    <rect x="122.443" y="81.3315" width="7.02904" height="5.02253" rx="1.34409" fill="#00F0FF"/>
    <rect x="152.939" y="81.3315" width="7.02904" height="5.02253" rx="1.34409" fill="#00F0FF"/>
    <rect x="183.438" y="81.3315" width="7.02904" height="5.02253" rx="1.34409" fill="#00F0FF"/>
    <rect x="213.935" y="81.3315" width="7.02904" height="5.02253" rx="1.34409" fill="#00F0FF"/>
    <rect x="244.432" y="81.3315" width="7.02904" height="5.02253" rx="1.34409" fill="#00F0FF"/>
    <rect x="274.929" y="81.3315" width="7.02904" height="5.02253" rx="1.34409" fill="#00F0FF"/>
    <rect x="0.455078" y="101.421" width="7.02904" height="5.02253" rx="1.34409" fill="#00F0FF"/>
    <rect x="30.9521" y="101.421" width="7.02904" height="5.02253" rx="1.34409" fill="#00F0FF"/>
    <rect x="61.4492" y="101.421" width="7.02904" height="5.02253" rx="1.34409" fill="#00F0FF"/>
    <rect x="91.9463" y="101.421" width="7.02904" height="5.02253" rx="1.34409" fill="#00F0FF"/>
    <rect x="122.443" y="101.421" width="7.02904" height="5.02253" rx="1.34409" fill="#00F0FF"/>
    <rect x="152.939" y="101.421" width="7.02904" height="5.02253" rx="1.34409" fill="#00F0FF"/>
    <rect x="183.438" y="101.421" width="7.02904" height="5.02253" rx="1.34409" fill="#00F0FF"/>
    <rect x="213.935" y="101.421" width="7.02904" height="5.02253" rx="1.34409" fill="#00F0FF"/>
    <rect x="244.432" y="101.421" width="7.02904" height="5.02253" rx="1.34409" fill="#00F0FF"/>
    <rect x="274.929" y="101.421" width="7.02904" height="5.02253" rx="1.34409" fill="#00F0FF"/>
    <rect x="0.455078" y="121.512" width="7.02904" height="5.02253" rx="1.34409" fill="#00F0FF"/>
    <rect x="0.455078" y="140.888" width="7.02904" height="5.02253" rx="1.34409" fill="#00F0FF"/>
    <rect x="0.455078" y="160.264" width="7.02904" height="5.02253" rx="1.34409" fill="#00F0FF"/>
    <rect x="0.455078" y="179.64" width="7.02904" height="5.02253" rx="1.34409" fill="#00F0FF"/>
    <rect x="30.9521" y="121.512" width="7.02904" height="5.02253" rx="1.34409" fill="#00F0FF"/>
    <rect x="30.9521" y="140.888" width="7.02904" height="5.02253" rx="1.34409" fill="#00F0FF"/>
    <rect x="30.9521" y="160.264" width="7.02904" height="5.02253" rx="1.34409" fill="#00F0FF"/>
    <rect x="30.9521" y="179.64" width="7.02904" height="5.02253" rx="1.34409" fill="#00F0FF"/>
    <rect x="61.4492" y="121.512" width="7.02904" height="5.02253" rx="1.34409" fill="#00F0FF"/>
    <rect x="61.4492" y="140.888" width="7.02904" height="5.02253" rx="1.34409" fill="#00F0FF"/>
    <rect x="61.4492" y="160.264" width="7.02904" height="5.02253" rx="1.34409" fill="#00F0FF"/>
    <rect x="61.4492" y="179.64" width="7.02904" height="5.02253" rx="1.34409" fill="#00F0FF"/>
    <rect x="91.9463" y="121.512" width="7.02904" height="5.02253" rx="1.34409" fill="#00F0FF"/>
    <rect x="91.9463" y="140.888" width="7.02904" height="5.02253" rx="1.34409" fill="#00F0FF"/>
    <rect x="91.9463" y="160.264" width="7.02904" height="5.02253" rx="1.34409" fill="#00F0FF"/>
    <rect x="91.9463" y="179.64" width="7.02904" height="5.02253" rx="1.34409" fill="#00F0FF"/>
    <rect x="122.443" y="121.512" width="7.02904" height="5.02253" rx="1.34409" fill="#00F0FF"/>
    <rect x="122.443" y="140.888" width="7.02904" height="5.02253" rx="1.34409" fill="#00F0FF"/>
    <rect x="122.443" y="160.264" width="7.02904" height="5.02253" rx="1.34409" fill="#00F0FF"/>
    <rect x="122.443" y="179.64" width="7.02904" height="5.02253" rx="1.34409" fill="#00F0FF"/>
    <rect x="152.939" y="121.512" width="7.02904" height="5.02253" rx="1.34409" fill="#00F0FF"/>
    <rect x="152.939" y="140.888" width="7.02904" height="5.02253" rx="1.34409" fill="#00F0FF"/>
    <rect x="152.939" y="160.264" width="7.02904" height="5.02253" rx="1.34409" fill="#00F0FF"/>
    <rect x="152.939" y="179.64" width="7.02904" height="5.02253" rx="1.34409" fill="#00F0FF"/>
    <rect x="183.438" y="121.512" width="7.02904" height="5.02253" rx="1.34409" fill="#00F0FF"/>
    <rect x="183.438" y="140.888" width="7.02904" height="5.02253" rx="1.34409" fill="#00F0FF"/>
    <rect x="183.438" y="160.264" width="7.02904" height="5.02253" rx="1.34409" fill="#00F0FF"/>
    <rect x="183.438" y="179.64" width="7.02904" height="5.02253" rx="1.34409" fill="#00F0FF"/>
    <rect x="213.935" y="121.512" width="7.02904" height="5.02253" rx="1.34409" fill="#00F0FF"/>
    <rect x="213.935" y="140.888" width="7.02904" height="5.02253" rx="1.34409" fill="#00F0FF"/>
    <rect x="213.935" y="160.264" width="7.02904" height="5.02253" rx="1.34409" fill="#00F0FF"/>
    <rect x="213.935" y="179.64" width="7.02904" height="5.02253" rx="1.34409" fill="#00F0FF"/>
    <rect x="244.432" y="121.512" width="7.02904" height="5.02253" rx="1.34409" fill="#00F0FF"/>
    <rect x="244.432" y="140.888" width="7.02904" height="5.02253" rx="1.34409" fill="#00F0FF"/>
    <rect x="244.432" y="160.264" width="7.02904" height="5.02253" rx="1.34409" fill="#00F0FF"/>
    <rect x="244.432" y="179.64" width="7.02904" height="5.02253" rx="1.34409" fill="#00F0FF"/>
    <rect x="274.929" y="121.512" width="7.02904" height="5.02253" rx="1.34409" fill="#00F0FF"/>
    <rect x="274.929" y="140.888" width="7.02904" height="5.02253" rx="1.34409" fill="#00F0FF"/>
    <rect x="274.929" y="160.264" width="7.02904" height="5.02253" rx="1.34409" fill="#00F0FF"/>
    <rect x="274.929" y="179.64" width="7.02904" height="5.02253" rx="1.34409" fill="#00F0FF"/>
    </svg>
    