<svg width="233" height="26" viewBox="0 0 233 26" fill="none" xmlns="http://www.w3.org/2000/svg">
    <rect x="15.0576" width="7.02904" height="5.02253" rx="1.34409" fill="#00F0FF"/>
    <rect x="45.0869" width="7.02904" height="5.02253" rx="1.34409" fill="#00F0FF"/>
    <rect x="75.1162" width="7.02904" height="5.02253" rx="1.34409" fill="#00F0FF"/>
    <rect x="105.146" width="7.02904" height="5.02253" rx="1.34409" fill="#00F0FF"/>
    <rect x="135.174" width="7.02904" height="5.02253" rx="1.34409" fill="#00F0FF"/>
    <rect x="165.203" width="7.02904" height="5.02253" rx="1.34409" fill="#00F0FF"/>
    <rect x="195.232" width="7.02904" height="5.02253" rx="1.34409" fill="#00F0FF"/>
    <rect x="225.262" width="7.02904" height="5.02253" rx="1.34409" fill="#00F0FF"/>
    <rect x="15.0576" y="20.0225" width="7.02904" height="5.02253" rx="1.34409" fill="#00F0FF"/>
    <rect x="45.0869" y="20.0225" width="7.02904" height="5.02253" rx="1.34409" fill="#00F0FF"/>
    <rect x="75.1162" y="20.0225" width="7.02904" height="5.02253" rx="1.34409" fill="#00F0FF"/>
    <rect x="105.146" y="20.0225" width="7.02904" height="5.02253" rx="1.34409" fill="#00F0FF"/>
    <rect x="135.174" y="20.0225" width="7.02904" height="5.02253" rx="1.34409" fill="#00F0FF"/>
    <rect x="165.203" y="20.0225" width="7.02904" height="5.02253" rx="1.34409" fill="#00F0FF"/>
    <rect x="195.232" y="20.0225" width="7.02904" height="5.02253" rx="1.34409" fill="#00F0FF"/>
    <rect x="225.262" y="20.0225" width="7.02904" height="5.02253" rx="1.34409" fill="#00F0FF"/>
    </svg>
    