<svg width="166" height="184" viewBox="0 0 166 184" fill="none" xmlns="http://www.w3.org/2000/svg">
    <rect x="0.87793" y="0.298828" width="7.02904" height="5.02253" rx="1.34409" fill="#00F0FF"/>
    <rect x="31.375" y="0.298828" width="7.02904" height="5.02253" rx="1.34409" fill="#00F0FF"/>
    <rect x="61.8721" y="0.298828" width="7.02904" height="5.02253" rx="1.34409" fill="#00F0FF"/>
    <rect x="92.3691" y="0.298828" width="7.02904" height="5.02253" rx="1.34409" fill="#00F0FF"/>
    <rect x="122.866" y="0.298828" width="7.02904" height="5.02253" rx="1.34409" fill="#00F0FF"/>
    <rect x="153.362" y="0.298828" width="7.02904" height="5.02253" rx="1.34409" fill="#00F0FF"/>
    <rect x="0.87793" y="20.3892" width="7.02904" height="5.02253" rx="1.34409" fill="#00F0FF"/>
    <rect x="31.375" y="20.3892" width="7.02904" height="5.02253" rx="1.34409" fill="#00F0FF"/>
    <rect x="61.8721" y="20.3892" width="7.02904" height="5.02253" rx="1.34409" fill="#00F0FF"/>
    <rect x="92.3691" y="20.3892" width="7.02904" height="5.02253" rx="1.34409" fill="#00F0FF"/>
    <rect x="122.866" y="20.3892" width="7.02904" height="5.02253" rx="1.34409" fill="#00F0FF"/>
    <rect x="153.362" y="20.3892" width="7.02904" height="5.02253" rx="1.34409" fill="#00F0FF"/>
    <rect x="0.87793" y="40.479" width="7.02904" height="5.02253" rx="1.34409" fill="#00F0FF"/>
    <rect x="31.375" y="40.479" width="7.02904" height="5.02253" rx="1.34409" fill="#00F0FF"/>
    <rect x="61.8721" y="40.479" width="7.02904" height="5.02253" rx="1.34409" fill="#00F0FF"/>
    <rect x="92.3691" y="40.479" width="7.02904" height="5.02253" rx="1.34409" fill="#00F0FF"/>
    <rect x="122.866" y="40.479" width="7.02904" height="5.02253" rx="1.34409" fill="#00F0FF"/>
    <rect x="153.362" y="40.479" width="7.02904" height="5.02253" rx="1.34409" fill="#00F0FF"/>
    <rect x="0.87793" y="60.5688" width="7.02904" height="5.02253" rx="1.34409" fill="#00F0FF"/>
    <rect x="31.375" y="60.5688" width="7.02904" height="5.02253" rx="1.34409" fill="#00F0FF"/>
    <rect x="61.8721" y="60.5688" width="7.02904" height="5.02253" rx="1.34409" fill="#00F0FF"/>
    <rect x="92.3691" y="60.5688" width="7.02904" height="5.02253" rx="1.34409" fill="#00F0FF"/>
    <rect x="122.866" y="60.5688" width="7.02904" height="5.02253" rx="1.34409" fill="#00F0FF"/>
    <rect x="153.362" y="60.5688" width="7.02904" height="5.02253" rx="1.34409" fill="#00F0FF"/>
    <rect x="0.87793" y="80.6597" width="7.02904" height="5.02253" rx="1.34409" fill="#00F0FF"/>
    <rect x="31.375" y="80.6597" width="7.02904" height="5.02253" rx="1.34409" fill="#00F0FF"/>
    <rect x="61.8721" y="80.6597" width="7.02904" height="5.02253" rx="1.34409" fill="#00F0FF"/>
    <rect x="92.3691" y="80.6597" width="7.02904" height="5.02253" rx="1.34409" fill="#00F0FF"/>
    <rect x="122.866" y="80.6597" width="7.02904" height="5.02253" rx="1.34409" fill="#00F0FF"/>
    <rect x="153.362" y="80.6597" width="7.02904" height="5.02253" rx="1.34409" fill="#00F0FF"/>
    <rect x="0.87793" y="100.75" width="7.02904" height="5.02253" rx="1.34409" fill="#00F0FF"/>
    <rect x="31.375" y="100.75" width="7.02904" height="5.02253" rx="1.34409" fill="#00F0FF"/>
    <rect x="61.8721" y="100.75" width="7.02904" height="5.02253" rx="1.34409" fill="#00F0FF"/>
    <rect x="92.3691" y="100.75" width="7.02904" height="5.02253" rx="1.34409" fill="#00F0FF"/>
    <rect x="122.866" y="100.75" width="7.02904" height="5.02253" rx="1.34409" fill="#00F0FF"/>
    <rect x="153.362" y="100.75" width="7.02904" height="5.02253" rx="1.34409" fill="#00F0FF"/>
    <rect x="0.87793" y="120.84" width="7.02904" height="5.02253" rx="1.34409" fill="#00F0FF"/>
    <rect x="0.87793" y="140.216" width="7.02904" height="5.02253" rx="1.34409" fill="#00F0FF"/>
    <rect x="0.87793" y="159.592" width="7.02904" height="5.02253" rx="1.34409" fill="#00F0FF"/>
    <rect x="0.87793" y="178.968" width="7.02904" height="5.02253" rx="1.34409" fill="#00F0FF"/>
    <rect x="31.375" y="120.84" width="7.02904" height="5.02253" rx="1.34409" fill="#00F0FF"/>
    <rect x="31.375" y="140.216" width="7.02904" height="5.02253" rx="1.34409" fill="#00F0FF"/>
    <rect x="31.375" y="159.592" width="7.02904" height="5.02253" rx="1.34409" fill="#00F0FF"/>
    <rect x="31.375" y="178.968" width="7.02904" height="5.02253" rx="1.34409" fill="#00F0FF"/>
    <rect x="61.8721" y="120.84" width="7.02904" height="5.02253" rx="1.34409" fill="#00F0FF"/>
    <rect x="61.8721" y="140.216" width="7.02904" height="5.02253" rx="1.34409" fill="#00F0FF"/>
    <rect x="61.8721" y="159.592" width="7.02904" height="5.02253" rx="1.34409" fill="#00F0FF"/>
    <rect x="61.8721" y="178.968" width="7.02904" height="5.02253" rx="1.34409" fill="#00F0FF"/>
    <rect x="92.3691" y="120.84" width="7.02904" height="5.02253" rx="1.34409" fill="#00F0FF"/>
    <rect x="92.3691" y="140.216" width="7.02904" height="5.02253" rx="1.34409" fill="#00F0FF"/>
    <rect x="92.3691" y="159.592" width="7.02904" height="5.02253" rx="1.34409" fill="#00F0FF"/>
    <rect x="92.3691" y="178.968" width="7.02904" height="5.02253" rx="1.34409" fill="#00F0FF"/>
    <rect x="122.866" y="120.84" width="7.02904" height="5.02253" rx="1.34409" fill="#00F0FF"/>
    <rect x="122.866" y="140.216" width="7.02904" height="5.02253" rx="1.34409" fill="#00F0FF"/>
    <rect x="122.866" y="159.592" width="7.02904" height="5.02253" rx="1.34409" fill="#00F0FF"/>
    <rect x="122.866" y="178.968" width="7.02904" height="5.02253" rx="1.34409" fill="#00F0FF"/>
    <rect x="153.362" y="120.84" width="7.02904" height="5.02253" rx="1.34409" fill="#00F0FF"/>
    <rect x="153.362" y="140.216" width="7.02904" height="5.02253" rx="1.34409" fill="#00F0FF"/>
    <rect x="153.362" y="159.592" width="7.02904" height="5.02253" rx="1.34409" fill="#00F0FF"/>
    <rect x="153.362" y="178.968" width="7.02904" height="5.02253" rx="1.34409" fill="#00F0FF"/>
    </svg>
    