<svg width="126" height="74" viewBox="0 0 126 74" fill="none" xmlns="http://www.w3.org/2000/svg">
    <path d="M50.6467 37H75.3533M122.5 51.1667V22.8333M3.5 51.1667V22.8333M92.3533 71C105.953 71 109.353 63.35 109.353 54V20C109.353 10.65 105.953 3 92.3533 3C78.7533 3 75.3533 10.65 75.3533 20V54C75.3533 63.35 78.7533 71 92.3533 71ZM33.6467 71C20.0467 71 16.6467 63.35 16.6467 54V20C16.6467 10.65 20.0467 3 33.6467 3C47.2467 3 50.6467 10.65 50.6467 20V54C50.6467 63.35 47.2467 71 33.6467 71Z" stroke="white" stroke-width="6" stroke-linecap="round" stroke-linejoin="round"/>
    </svg>
    