<svg xmlns="http://www.w3.org/2000/svg" width="17" height="17" viewBox="0 0 17 17" fill="none">
    <path d="M10.9027 9.15636C10.9634 9.09296 11.011 9.01819 11.0427 8.93636C11.1094 8.77405 11.1094 8.592 11.0427 8.42969C11.011 8.34786 10.9634 8.2731 10.9027 8.20969L8.9027 6.20969C8.77716 6.08416 8.6069 6.01363 8.42936 6.01363C8.25183 6.01363 8.08157 6.08416 7.95603 6.20969C7.8305 6.33523 7.75997 6.50549 7.75997 6.68303C7.75997 6.86056 7.8305 7.03082 7.95603 7.15636L8.8227 8.01636H6.42936C6.25255 8.01636 6.08298 8.0866 5.95796 8.21162C5.83294 8.33665 5.7627 8.50622 5.7627 8.68303C5.7627 8.85984 5.83294 9.02941 5.95796 9.15443C6.08298 9.27946 6.25255 9.34969 6.42936 9.34969H8.8227L7.95603 10.2097C7.89355 10.2717 7.84395 10.3454 7.8101 10.4266C7.77626 10.5079 7.75883 10.595 7.75883 10.683C7.75883 10.771 7.77626 10.8582 7.8101 10.9394C7.84395 11.0207 7.89355 11.0944 7.95603 11.1564C8.01801 11.2188 8.09174 11.2684 8.17298 11.3023C8.25422 11.3361 8.34136 11.3536 8.42936 11.3536C8.51737 11.3536 8.60451 11.3361 8.68575 11.3023C8.76699 11.2684 8.84072 11.2188 8.9027 11.1564L10.9027 9.15636ZM15.096 8.68303C15.096 7.36448 14.705 6.07555 13.9725 4.97923C13.24 3.8829 12.1988 3.02841 10.9806 2.52383C9.76241 2.01925 8.42197 1.88722 7.12876 2.14446C5.83556 2.40169 4.64767 3.03663 3.71532 3.96898C2.78297 4.90133 2.14803 6.08922 1.8908 7.38242C1.63356 8.67563 1.76558 10.0161 2.27017 11.2343C2.77475 12.4524 3.62924 13.4936 4.72556 14.2262C5.82189 14.9587 7.11082 15.3497 8.42936 15.3497C10.1975 15.3497 11.8932 14.6473 13.1434 13.3971C14.3937 12.1468 15.096 10.4511 15.096 8.68303ZM3.09603 8.68303C3.09603 7.62819 3.40883 6.59705 3.99486 5.71999C4.58089 4.84292 5.41385 4.15934 6.38839 3.75567C7.36293 3.352 8.43528 3.24638 9.46985 3.45217C10.5044 3.65796 11.4547 4.16591 12.2006 4.91179C12.9465 5.65767 13.4544 6.60798 13.6602 7.64255C13.866 8.67711 13.7604 9.74947 13.3567 10.724C12.9531 11.6985 12.2695 12.5315 11.3924 13.1175C10.5153 13.7036 9.4842 14.0164 8.42936 14.0164C7.01488 14.0164 5.65832 13.4545 4.65813 12.4543C3.65793 11.4541 3.09603 10.0975 3.09603 8.68303Z" fill="#3D3D3D"/>
  </svg>