<svg width="110" height="110" viewBox="0 0 110 110" fill="none" xmlns="http://www.w3.org/2000/svg">
    <path d="M100.834 54.4957V58.5748C100.834 74.8915 96.7545 78.9248 80.4837 78.9248H29.517C13.2462 78.9248 9.16699 74.8457 9.16699 58.5748V29.5165C9.16699 13.2457 13.2462 9.1665 29.517 9.1665H36.667M55.0003 78.9248V100.833M9.16699 59.5832H100.834M34.3753 100.833H75.6253" stroke="white" stroke-width="6" stroke-linecap="round" stroke-linejoin="round"/>
    <path d="M81.8584 42.9457H60.0417C53.7167 42.9457 51.6084 38.7291 51.6084 34.5124V18.3791C51.6084 13.3374 55.7334 9.2124 60.7751 9.2124H81.8584C86.5334 9.2124 90.2917 12.9707 90.2917 17.6457V34.5124C90.2917 39.1874 86.5334 42.9457 81.8584 42.9457ZM95.8376 36.2999L90.2917 32.4041V19.7541L95.8376 15.8582C98.5876 13.9791 100.833 15.1249 100.833 18.4707V33.7332C100.833 37.0791 98.5876 38.2249 95.8376 36.2999Z" stroke="white" stroke-width="6" stroke-linecap="round" stroke-linejoin="round"/>
    </svg>
    