<svg xmlns="http://www.w3.org/2000/svg" width="290" height="644" viewBox="0 0 290 644"><rect width="100%" height="100%" fill="#DDDDDD"/><path fill="#999999" d="M68.01 331.61h7.23q.78 0 1.24.44.46.44.46 1.16v2.89H57.59v-1.6q0-.49.21-1.02.2-.54.65-.97l8.56-8.58q1.08-1.09 1.92-2.08.85-1 1.42-1.97.56-.98.87-1.98.3-1.01.3-2.12 0-1.01-.29-1.78-.3-.77-.83-1.3-.54-.53-1.29-.79t-1.69-.26q-.86 0-1.59.24-.73.24-1.29.68-.57.44-.96 1.03-.39.58-.58 1.28-.33.9-.86 1.19-.53.3-1.52.14l-2.54-.45q.29-2.03 1.13-3.56.84-1.53 2.1-2.55 1.26-1.03 2.89-1.54 1.62-.52 3.5-.52 1.95 0 3.56.58 1.62.57 2.77 1.62 1.15 1.06 1.8 2.54.64 1.48.64 3.29 0 1.57-.46 2.89-.46 1.33-1.23 2.54-.77 1.2-1.8 2.34-1.03 1.13-2.16 2.3l-6.36 6.49q.92-.27 1.82-.42.91-.15 1.73-.15Zm17.16-15.24q0 2.36 1.22 3.59 1.22 1.24 3.46 1.24 1.17 0 2.08-.37.92-.37 1.54-1.01.63-.65.95-1.52.32-.88.32-1.9 0-1.15-.35-2.05-.35-.91-.99-1.53-.65-.63-1.53-.96-.89-.33-1.94-.33-1.1 0-1.97.36-.88.36-1.5 1.01-.63.64-.96 1.53-.33.88-.33 1.94Zm-2.36 19.73 8.75-10.94q.34-.41.63-.8.29-.39.56-.78-.97.63-2.14.95-1.17.32-2.46.32-1.46 0-2.87-.51-1.4-.51-2.49-1.53-1.09-1.02-1.77-2.53-.67-1.52-.67-3.54 0-1.89.7-3.55.71-1.66 1.97-2.91 1.27-1.25 3.04-1.97 1.78-.72 3.92-.72 2.17 0 3.89.68 1.73.69 2.95 1.91 1.22 1.23 1.87 2.95.65 1.72.65 3.76 0 1.31-.22 2.48t-.63 2.25q-.41 1.08-1 2.12-.58 1.03-1.3 2.04l-6.46 9.21q-.33.47-.99.79-.67.32-1.5.32h-4.43ZM123 322q0 3.69-.79 6.41t-2.19 4.49q-1.39 1.78-3.29 2.64-1.9.87-4.11.87-2.2 0-4.08-.87-1.88-.86-3.27-2.64-1.38-1.77-2.16-4.49-.78-2.72-.78-6.41 0-3.7.78-6.41t2.16-4.49q1.39-1.77 3.27-2.64 1.88-.87 4.08-.87 2.21 0 4.11.87 1.9.87 3.29 2.64 1.4 1.78 2.19 4.49T123 322Zm-4.97 0q0-3.06-.45-5.07-.45-2.01-1.2-3.2-.75-1.19-1.73-1.66-.97-.48-2.03-.48-1.03 0-1.99.48-.97.47-1.71 1.66t-1.18 3.2q-.44 2.01-.44 5.07 0 3.06.44 5.07.44 2.01 1.18 3.2.74 1.19 1.71 1.67.96.47 1.99.47 1.06 0 2.03-.47.98-.48 1.73-1.67t1.2-3.2q.45-2.01.45-5.07Zm35.93 7.65-2.55 2.51-6.61-6.61-6.67 6.65-2.55-2.52 6.66-6.68-6.35-6.36 2.53-2.54 6.36 6.36 6.32-6.32 2.57 2.54-6.34 6.34 6.63 6.63Zm30.13-21.75-8.36 10.24-.98 1.21q.82-.41 1.77-.63.94-.23 2.03-.23 1.6 0 3.11.53 1.52.52 2.67 1.59 1.15 1.06 1.85 2.64.7 1.58.7 3.69 0 1.96-.72 3.69t-2.03 3.01q-1.31 1.29-3.15 2.03-1.84.74-4.06.74-2.27 0-4.06-.72-1.79-.72-3.06-2.02-1.27-1.29-1.94-3.12-.67-1.82-.67-4.04 0-1.99.8-4.09.81-2.1 2.51-4.36l6.73-9.03q.35-.46 1.02-.8.67-.33 1.55-.33h4.29Zm-7.27 24.57q1.15 0 2.11-.39.97-.39 1.66-1.09.69-.7 1.08-1.65.39-.94.39-2.05 0-1.21-.37-2.18-.37-.96-1.05-1.64-.68-.67-1.64-1.02-.95-.35-2.1-.35-1.15 0-2.09.39t-1.6 1.08q-.66.69-1.03 1.64-.37.94-.37 2.04 0 1.17.32 2.13.32.97.95 1.65.64.68 1.57 1.06.94.38 2.17.38Zm16.65-7h8.58v-9.22q0-1.31.18-2.89l-8.76 12.11Zm12.77 0h3.55v2.79q0 .39-.25.67-.25.29-.72.29h-2.58v6.88h-4.19v-6.88h-11.89q-.49 0-.86-.31-.37-.3-.47-.75l-.51-2.43 13.36-17.85h4.56v17.59Zm9.85 0h8.58v-9.22q0-1.31.18-2.89l-8.76 12.11Zm12.77 0h3.55v2.79q0 .39-.25.67-.25.29-.72.29h-2.58v6.88h-4.19v-6.88h-11.89q-.49 0-.86-.31-.37-.3-.47-.75l-.51-2.43 13.36-17.85h4.56v17.59Z"/></svg>